<svg 
 xmlns="http://www.w3.org/2000/svg"
 xmlns:xlink="http://www.w3.org/1999/xlink"
 width="16px" height="16px">
<path fill-rule="evenodd"  fill="rgb(0, 0, 0)"
 d="M15.973,7.739 C15.970,7.748 15.968,7.757 15.965,7.766 C15.956,7.786 15.944,7.805 15.933,7.824 C15.928,7.830 15.926,7.837 15.922,7.843 C15.905,7.867 15.885,7.890 15.864,7.911 L15.780,7.993 L15.864,8.075 C15.885,8.096 15.905,8.119 15.922,8.143 C15.926,8.149 15.928,8.156 15.933,8.162 C15.944,8.181 15.956,8.200 15.965,8.220 C15.968,8.229 15.970,8.238 15.973,8.247 C15.980,8.266 15.987,8.284 15.991,8.304 C15.997,8.333 16.000,8.363 16.000,8.393 C16.000,8.423 15.997,8.453 15.991,8.482 C15.987,8.502 15.980,8.520 15.973,8.539 C15.970,8.547 15.968,8.557 15.965,8.565 C15.956,8.586 15.944,8.605 15.933,8.624 C15.928,8.630 15.926,8.637 15.922,8.643 C15.905,8.667 15.885,8.690 15.864,8.711 L8.491,15.859 C8.310,16.034 8.017,16.034 7.836,15.859 C7.655,15.683 7.655,15.399 7.836,15.223 L7.956,15.107 C7.917,15.087 7.869,15.091 7.836,15.059 C7.655,14.883 7.655,14.599 7.836,14.423 L13.593,8.842 L0.465,8.842 C0.208,8.842 -0.000,8.641 -0.000,8.393 C-0.000,8.191 0.152,8.050 0.341,7.993 C0.152,7.936 -0.000,7.794 -0.000,7.593 C-0.000,7.345 0.208,7.144 0.465,7.144 L13.593,7.144 L7.836,1.562 C7.655,1.387 7.655,1.103 7.836,0.927 C7.869,0.895 7.917,0.899 7.956,0.879 L7.836,0.763 C7.655,0.587 7.655,0.302 7.836,0.127 C7.926,0.039 8.044,-0.004 8.163,-0.004 C8.282,-0.004 8.399,0.039 8.491,0.127 L15.864,7.275 C15.885,7.296 15.905,7.319 15.922,7.343 C15.926,7.349 15.928,7.356 15.933,7.362 C15.944,7.381 15.956,7.400 15.965,7.421 C15.968,7.429 15.970,7.438 15.973,7.447 C15.980,7.466 15.987,7.484 15.991,7.504 C15.997,7.533 16.000,7.563 16.000,7.593 C16.000,7.623 15.997,7.653 15.991,7.681 C15.987,7.702 15.980,7.720 15.973,7.739 Z"/>
</svg>